<?xml version="1.0" encoding="UTF-8" standalone="no"?>
<!DOCTYPE svg PUBLIC "-//W3C//DTD SVG 1.1//EN"
 "http://www.w3.org/Graphics/SVG/1.1/DTD/svg11.dtd">
<!-- Generated by graphviz version 2.36.0 (20140111.2315)
 -->
<!-- Title: G Pages: 1 -->
<svg width="542pt" height="1661pt"
 viewBox="0.00 0.00 542.00 1661.00" xmlns="http://www.w3.org/2000/svg" xmlns:xlink="http://www.w3.org/1999/xlink">
<g id="graph0" class="graph" transform="scale(1 1) rotate(0) translate(4 1657)">
<title>G</title>
<polygon fill="white" stroke="none" points="-4,4 -4,-1657 538,-1657 538,4 -4,4"/>
<g id="clust1" class="cluster"><title>cluster_Global</title>
<path fill="none" stroke="gray" d="M152,-8C152,-8 514,-8 514,-8 520,-8 526,-14 526,-20 526,-20 526,-1633 526,-1633 526,-1639 520,-1645 514,-1645 514,-1645 152,-1645 152,-1645 146,-1645 140,-1639 140,-1633 140,-1633 140,-20 140,-20 140,-14 146,-8 152,-8"/>
<text text-anchor="middle" x="333" y="-1632.2" font-family="Times,serif" font-size="11.00" fill="gray">Global</text>
</g>
<!-- \\Session -->
<g id="node1" class="node"><title>\\Session</title>
<polygon fill="none" stroke="black" points="468.208,-1618 405.792,-1618 405.792,-1582 468.208,-1582 468.208,-1618"/>
<text text-anchor="middle" x="437" y="-1596.7" font-family="Courier,monospace" font-size="11.00">Session</text>
</g>
<!-- \\CommentEntity -->
<g id="node2" class="node"><title>\\CommentEntity</title>
<polygon fill="none" stroke="black" points="487.814,-1564 386.186,-1564 386.186,-1528 487.814,-1528 487.814,-1564"/>
<text text-anchor="middle" x="437" y="-1542.7" font-family="Courier,monospace" font-size="11.00">CommentEntity</text>
</g>
<!-- \\HomeView -->
<g id="node3" class="node"><title>\\HomeView</title>
<polygon fill="none" stroke="black" points="471.309,-1294 402.691,-1294 402.691,-1258 471.309,-1258 471.309,-1294"/>
<text text-anchor="middle" x="437" y="-1272.7" font-family="Courier,monospace" font-size="11.00">HomeView</text>
</g>
<!-- \\View -->
<g id="node18" class="node"><title>\\View</title>
<polygon fill="none" stroke="black" points="257.011,-1240 174.989,-1240 174.989,-1204 257.011,-1204 257.011,-1240"/>
<text text-anchor="start" x="182.995" y="-1224.2" font-family="Courier,monospace" font-size="11.00">«abstract»</text>
<text text-anchor="start" x="202.798" y="-1213.2" font-family="Courier,monospace" font-size="11.00">View</text>
</g>
<!-- \\HomeView&#45;&gt;\\View -->
<g id="edge1" class="edge"><title>\\HomeView&#45;&gt;\\View</title>
<path fill="none" stroke="black" d="M402.261,-1267.68C366.126,-1258.77 308.401,-1244.54 266.988,-1234.33"/>
<polygon fill="none" stroke="black" points="267.645,-1230.88 257.098,-1231.89 265.97,-1237.68 267.645,-1230.88"/>
</g>
<!-- \\ArticleMapper -->
<g id="node4" class="node"><title>\\ArticleMapper</title>
<polygon fill="none" stroke="black" points="487.814,-700 386.186,-700 386.186,-664 487.814,-664 487.814,-700"/>
<text text-anchor="middle" x="437" y="-678.7" font-family="Courier,monospace" font-size="11.00">ArticleMapper</text>
</g>
<!-- \\AbstractDataMapper -->
<g id="node32" class="node"><title>\\AbstractDataMapper</title>
<polygon fill="none" stroke="black" points="283.319,-700 148.681,-700 148.681,-664 283.319,-664 283.319,-700"/>
<text text-anchor="start" x="182.995" y="-684.2" font-family="Courier,monospace" font-size="11.00">«abstract»</text>
<text text-anchor="start" x="156.59" y="-673.2" font-family="Courier,monospace" font-size="11.00">AbstractDataMapper</text>
</g>
<!-- \\ArticleMapper&#45;&gt;\\AbstractDataMapper -->
<g id="edge2" class="edge"><title>\\ArticleMapper&#45;&gt;\\AbstractDataMapper</title>
<path fill="none" stroke="black" d="M386.031,-682C358.697,-682 324.252,-682 293.599,-682"/>
<polygon fill="none" stroke="black" points="293.365,-678.5 283.365,-682 293.365,-685.5 293.365,-678.5"/>
</g>
<!-- \\HomeController -->
<g id="node5" class="node"><title>\\HomeController</title>
<polygon fill="none" stroke="black" points="491.416,-538 382.584,-538 382.584,-502 491.416,-502 491.416,-538"/>
<text text-anchor="middle" x="437" y="-516.7" font-family="Courier,monospace" font-size="11.00">HomeController</text>
</g>
<!-- \\Controller -->
<g id="node14" class="node"><title>\\Controller</title>
<polygon fill="none" stroke="black" points="257.011,-322 174.989,-322 174.989,-286 257.011,-286 257.011,-322"/>
<text text-anchor="start" x="182.995" y="-306.2" font-family="Courier,monospace" font-size="11.00">«abstract»</text>
<text text-anchor="start" x="182.995" y="-295.2" font-family="Courier,monospace" font-size="11.00">Controller</text>
</g>
<!-- \\HomeController&#45;&gt;\\Controller -->
<g id="edge3" class="edge"><title>\\HomeController&#45;&gt;\\Controller</title>
<path fill="none" stroke="black" d="M382.537,-507.056C373.188,-503.406 363.93,-498.795 356,-493 296.176,-449.282 251.185,-372.258 230.155,-331.34"/>
<polygon fill="none" stroke="black" points="233.19,-329.585 225.564,-322.23 226.939,-332.736 233.19,-329.585"/>
</g>
<!-- \\ArticleEntity -->
<g id="node6" class="node"><title>\\ArticleEntity</title>
<polygon fill="none" stroke="black" points="487.814,-1348 386.186,-1348 386.186,-1312 487.814,-1312 487.814,-1348"/>
<text text-anchor="middle" x="437" y="-1326.7" font-family="Courier,monospace" font-size="11.00">ArticleEntity</text>
</g>
<!-- \\UserAccessView -->
<g id="node7" class="node"><title>\\UserAccessView</title>
<polygon fill="none" stroke="black" points="491.416,-1240 382.584,-1240 382.584,-1204 491.416,-1204 491.416,-1240"/>
<text text-anchor="middle" x="437" y="-1218.7" font-family="Courier,monospace" font-size="11.00">UserAccessView</text>
</g>
<!-- \\UserAccessView&#45;&gt;\\View -->
<g id="edge4" class="edge"><title>\\UserAccessView&#45;&gt;\\View</title>
<path fill="none" stroke="black" d="M382.707,-1222C347.596,-1222 301.907,-1222 267.4,-1222"/>
<polygon fill="none" stroke="black" points="267.073,-1218.5 257.073,-1222 267.073,-1225.5 267.073,-1218.5"/>
</g>
<!-- \\CommentView -->
<g id="node8" class="node"><title>\\CommentView</title>
<polygon fill="none" stroke="black" points="481.113,-1186 392.887,-1186 392.887,-1150 481.113,-1150 481.113,-1186"/>
<text text-anchor="middle" x="437" y="-1164.7" font-family="Courier,monospace" font-size="11.00">CommentView</text>
</g>
<!-- \\CommentView&#45;&gt;\\View -->
<g id="edge5" class="edge"><title>\\CommentView&#45;&gt;\\View</title>
<path fill="none" stroke="black" d="M392.733,-1178.67C356.573,-1187.58 304.978,-1200.31 267.045,-1209.66"/>
<polygon fill="none" stroke="black" points="266.095,-1206.29 257.224,-1212.08 267.771,-1213.09 266.095,-1206.29"/>
</g>
<!-- \\DashboardView -->
<g id="node9" class="node"><title>\\DashboardView</title>
<polygon fill="none" stroke="black" points="487.814,-1078 386.186,-1078 386.186,-1042 487.814,-1042 487.814,-1078"/>
<text text-anchor="middle" x="437" y="-1056.7" font-family="Courier,monospace" font-size="11.00">DashboardView</text>
</g>
<!-- \\DashboardView&#45;&gt;\\View -->
<g id="edge6" class="edge"><title>\\DashboardView&#45;&gt;\\View</title>
<path fill="none" stroke="black" d="M385.806,-1073.12C375.562,-1076.83 365.133,-1081.42 356,-1087 307.711,-1116.48 262.876,-1165.5 237.799,-1195.65"/>
<polygon fill="none" stroke="black" points="234.896,-1193.67 231.264,-1203.63 240.31,-1198.11 234.896,-1193.67"/>
</g>
<!-- \\Singleton -->
<g id="node10" class="node"><title>\\Singleton</title>
<polygon fill="none" stroke="black" points="474.911,-1132 399.089,-1132 399.089,-1096 474.911,-1096 474.911,-1132"/>
<text text-anchor="middle" x="437" y="-1110.7" font-family="Courier,monospace" font-size="11.00">Singleton</text>
</g>
<!-- \\CommentMapper -->
<g id="node11" class="node"><title>\\CommentMapper</title>
<polygon fill="none" stroke="black" points="487.814,-646 386.186,-646 386.186,-610 487.814,-610 487.814,-646"/>
<text text-anchor="middle" x="437" y="-624.7" font-family="Courier,monospace" font-size="11.00">CommentMapper</text>
</g>
<!-- \\CommentMapper&#45;&gt;\\AbstractDataMapper -->
<g id="edge7" class="edge"><title>\\CommentMapper&#45;&gt;\\AbstractDataMapper</title>
<path fill="none" stroke="black" d="M386.031,-640.321C358.578,-647.09 323.953,-655.628 293.2,-663.211"/>
<polygon fill="none" stroke="black" points="292.236,-659.844 283.365,-665.636 293.912,-666.64 292.236,-659.844"/>
</g>
<!-- \\ProjectView -->
<g id="node12" class="node"><title>\\ProjectView</title>
<polygon fill="none" stroke="black" points="481.113,-1024 392.887,-1024 392.887,-988 481.113,-988 481.113,-1024"/>
<text text-anchor="middle" x="437" y="-1002.7" font-family="Courier,monospace" font-size="11.00">ProjectView</text>
</g>
<!-- \\ProjectView&#45;&gt;\\View -->
<g id="edge8" class="edge"><title>\\ProjectView&#45;&gt;\\View</title>
<path fill="none" stroke="black" d="M392.562,-1015.38C379.992,-1019.44 366.77,-1025.13 356,-1033 296.176,-1076.72 251.185,-1153.74 230.155,-1194.66"/>
<polygon fill="none" stroke="black" points="226.939,-1193.26 225.564,-1203.77 233.19,-1196.41 226.939,-1193.26"/>
</g>
<!-- \\UserEntity -->
<g id="node13" class="node"><title>\\UserEntity</title>
<polygon fill="none" stroke="black" points="478.011,-970 395.989,-970 395.989,-934 478.011,-934 478.011,-970"/>
<text text-anchor="middle" x="437" y="-948.7" font-family="Courier,monospace" font-size="11.00">UserEntity</text>
</g>
<!-- \\DashboardController -->
<g id="node15" class="node"><title>\\DashboardController</title>
<polygon fill="none" stroke="black" points="507.921,-160 366.079,-160 366.079,-124 507.921,-124 507.921,-160"/>
<text text-anchor="middle" x="437" y="-138.7" font-family="Courier,monospace" font-size="11.00">DashboardController</text>
</g>
<!-- \\DashboardController&#45;&gt;\\Controller -->
<g id="edge9" class="edge"><title>\\DashboardController&#45;&gt;\\Controller</title>
<path fill="none" stroke="black" d="M373.186,-160.149C367.209,-162.772 361.38,-165.715 356,-169 307.711,-198.484 262.876,-247.496 237.799,-277.652"/>
<polygon fill="none" stroke="black" points="234.896,-275.672 231.264,-285.625 240.31,-280.11 234.896,-275.672"/>
</g>
<!-- \\Database -->
<g id="node16" class="node"><title>\\Database</title>
<polygon fill="none" stroke="black" points="471.309,-862 402.691,-862 402.691,-826 471.309,-826 471.309,-862"/>
<text text-anchor="middle" x="437" y="-840.7" font-family="Courier,monospace" font-size="11.00">Database</text>
</g>
<!-- \\ArticleController -->
<g id="node17" class="node"><title>\\ArticleController</title>
<polygon fill="none" stroke="black" points="501.218,-322 372.782,-322 372.782,-286 501.218,-286 501.218,-322"/>
<text text-anchor="middle" x="437" y="-300.7" font-family="Courier,monospace" font-size="11.00">ArticleController</text>
</g>
<!-- \\ArticleController&#45;&gt;\\Controller -->
<g id="edge10" class="edge"><title>\\ArticleController&#45;&gt;\\Controller</title>
<path fill="none" stroke="black" d="M372.656,-304C339.175,-304 298.646,-304 267.339,-304"/>
<polygon fill="none" stroke="black" points="267.098,-300.5 257.098,-304 267.098,-307.5 267.098,-300.5"/>
</g>
<!-- \\Smarty -->
<g id="node34" class="node"><title>\\Smarty</title>
<ellipse fill="none" stroke="black" cx="38" cy="-1222" rx="38.2197" ry="18"/>
<text text-anchor="middle" x="38" y="-1217.8" font-family="Times,serif" font-size="14.00" fill="gray">\Smarty</text>
</g>
<!-- \\View&#45;&gt;\\Smarty -->
<g id="edge11" class="edge"><title>\\View&#45;&gt;\\Smarty</title>
<path fill="none" stroke="black" d="M174.622,-1222C148.345,-1222 113.961,-1222 86.3896,-1222"/>
<polygon fill="none" stroke="black" points="86.1873,-1218.5 76.1873,-1222 86.1872,-1225.5 86.1873,-1218.5"/>
</g>
<!-- \\InstallerView -->
<g id="node19" class="node"><title>\\InstallerView</title>
<polygon fill="none" stroke="black" points="487.814,-916 386.186,-916 386.186,-880 487.814,-880 487.814,-916"/>
<text text-anchor="middle" x="437" y="-894.7" font-family="Courier,monospace" font-size="11.00">InstallerView</text>
</g>
<!-- \\InstallerView&#45;&gt;\\View -->
<g id="edge12" class="edge"><title>\\InstallerView&#45;&gt;\\View</title>
<path fill="none" stroke="black" d="M386.12,-907.958C375.283,-911.899 364.526,-917.381 356,-925 272.478,-999.637 235.234,-1134.98 222.468,-1193.63"/>
<polygon fill="none" stroke="black" points="218.993,-1193.15 220.364,-1203.66 225.843,-1194.59 218.993,-1193.15"/>
</g>
<!-- \\UserMapper -->
<g id="node20" class="node"><title>\\UserMapper</title>
<polygon fill="none" stroke="black" points="478.011,-754 395.989,-754 395.989,-718 478.011,-718 478.011,-754"/>
<text text-anchor="middle" x="437" y="-732.7" font-family="Courier,monospace" font-size="11.00">UserMapper</text>
</g>
<!-- \\UserMapper&#45;&gt;\\AbstractDataMapper -->
<g id="edge13" class="edge"><title>\\UserMapper&#45;&gt;\\AbstractDataMapper</title>
<path fill="none" stroke="black" d="M395.832,-726.096C367.285,-719.057 328.058,-709.384 293.616,-700.892"/>
<polygon fill="none" stroke="black" points="294.118,-697.411 283.571,-698.415 292.443,-704.207 294.118,-697.411"/>
</g>
<!-- \\UserAccessController -->
<g id="node21" class="node"><title>\\UserAccessController</title>
<polygon fill="none" stroke="black" points="511.021,-214 362.979,-214 362.979,-178 511.021,-178 511.021,-214"/>
<text text-anchor="middle" x="437" y="-192.7" font-family="Courier,monospace" font-size="11.00">UserAccessController</text>
</g>
<!-- \\UserAccessController&#45;&gt;\\Controller -->
<g id="edge14" class="edge"><title>\\UserAccessController&#45;&gt;\\Controller</title>
<path fill="none" stroke="black" d="M377.781,-214.103C370.361,-216.86 362.939,-219.846 356,-223 319.518,-239.58 280.269,-263.017 252.813,-280.418"/>
<polygon fill="none" stroke="black" points="250.873,-277.504 244.332,-285.839 254.643,-283.402 250.873,-277.504"/>
</g>
<!-- \\InstallerController -->
<g id="node22" class="node"><title>\\InstallerController</title>
<polygon fill="none" stroke="black" points="507.921,-106 366.079,-106 366.079,-70 507.921,-70 507.921,-106"/>
<text text-anchor="middle" x="437" y="-84.7" font-family="Courier,monospace" font-size="11.00">InstallerController</text>
</g>
<!-- \\InstallerController&#45;&gt;\\Controller -->
<g id="edge15" class="edge"><title>\\InstallerController&#45;&gt;\\Controller</title>
<path fill="none" stroke="black" d="M370.954,-106.04C365.682,-108.655 360.616,-111.627 356,-115 296.176,-158.718 251.185,-235.742 230.155,-276.66"/>
<polygon fill="none" stroke="black" points="226.939,-275.264 225.564,-285.77 233.19,-278.415 226.939,-275.264"/>
</g>
<!-- \\ProjectController -->
<g id="node23" class="node"><title>\\ProjectController</title>
<polygon fill="none" stroke="black" points="501.218,-52 372.782,-52 372.782,-16 501.218,-16 501.218,-52"/>
<text text-anchor="middle" x="437" y="-30.7" font-family="Courier,monospace" font-size="11.00">ProjectController</text>
</g>
<!-- \\ProjectController&#45;&gt;\\Controller -->
<g id="edge16" class="edge"><title>\\ProjectController&#45;&gt;\\Controller</title>
<path fill="none" stroke="black" d="M372.525,-50.4516C366.613,-53.4162 360.981,-56.9027 356,-61 284.364,-119.925 242.284,-226.049 225.506,-276.246"/>
<polygon fill="none" stroke="black" points="222.167,-275.199 222.398,-285.791 228.822,-277.367 222.167,-275.199"/>
</g>
<!-- \\RegistrationController -->
<g id="node24" class="node"><title>\\RegistrationController</title>
<polygon fill="none" stroke="black" points="517.724,-484 356.276,-484 356.276,-448 517.724,-448 517.724,-484"/>
<text text-anchor="middle" x="437" y="-462.7" font-family="Courier,monospace" font-size="11.00">RegistrationController</text>
</g>
<!-- \\RegistrationController&#45;&gt;\\Controller -->
<g id="edge17" class="edge"><title>\\RegistrationController&#45;&gt;\\Controller</title>
<path fill="none" stroke="black" d="M373.186,-447.851C367.209,-445.228 361.38,-442.285 356,-439 307.711,-409.516 262.876,-360.504 237.799,-330.348"/>
<polygon fill="none" stroke="black" points="240.31,-327.89 231.264,-322.375 234.896,-332.328 240.31,-327.89"/>
</g>
<!-- \\ProjectMapper -->
<g id="node25" class="node"><title>\\ProjectMapper</title>
<polygon fill="none" stroke="black" points="487.814,-592 386.186,-592 386.186,-556 487.814,-556 487.814,-592"/>
<text text-anchor="middle" x="437" y="-570.7" font-family="Courier,monospace" font-size="11.00">ProjectMapper</text>
</g>
<!-- \\ProjectMapper&#45;&gt;\\AbstractDataMapper -->
<g id="edge18" class="edge"><title>\\ProjectMapper&#45;&gt;\\AbstractDataMapper</title>
<path fill="none" stroke="black" d="M385.892,-589.175C375.848,-592.7 365.475,-596.694 356,-601 319.518,-617.58 280.269,-641.017 252.813,-658.418"/>
<polygon fill="none" stroke="black" points="250.873,-655.504 244.332,-663.839 254.643,-661.402 250.873,-655.504"/>
</g>
<!-- \\MainView -->
<g id="node26" class="node"><title>\\MainView</title>
<polygon fill="none" stroke="black" points="471.309,-1510 402.691,-1510 402.691,-1474 471.309,-1474 471.309,-1510"/>
<text text-anchor="middle" x="437" y="-1488.7" font-family="Courier,monospace" font-size="11.00">MainView</text>
</g>
<!-- \\MainView&#45;&gt;\\View -->
<g id="edge19" class="edge"><title>\\MainView&#45;&gt;\\View</title>
<path fill="none" stroke="black" d="M402.571,-1486.4C387.094,-1482.47 369.245,-1475.9 356,-1465 284.364,-1406.07 242.284,-1299.95 225.506,-1249.75"/>
<polygon fill="none" stroke="black" points="228.822,-1248.63 222.398,-1240.21 222.167,-1250.8 228.822,-1248.63"/>
</g>
<!-- \\ACLMapper -->
<g id="node27" class="node"><title>\\ACLMapper</title>
<polygon fill="none" stroke="black" points="474.911,-808 399.089,-808 399.089,-772 474.911,-772 474.911,-808"/>
<text text-anchor="middle" x="437" y="-786.7" font-family="Courier,monospace" font-size="11.00">ACLMapper</text>
</g>
<!-- \\ACLMapper&#45;&gt;\\AbstractDataMapper -->
<g id="edge20" class="edge"><title>\\ACLMapper&#45;&gt;\\AbstractDataMapper</title>
<path fill="none" stroke="black" d="M399.16,-779.289C385.381,-774.838 369.745,-769.247 356,-763 319.518,-746.42 280.269,-722.983 252.813,-705.582"/>
<polygon fill="none" stroke="black" points="254.643,-702.598 244.332,-700.161 250.873,-708.496 254.643,-702.598"/>
</g>
<!-- \\ProjectEntity -->
<g id="node28" class="node"><title>\\ProjectEntity</title>
<polygon fill="none" stroke="black" points="487.814,-268 386.186,-268 386.186,-232 487.814,-232 487.814,-268"/>
<text text-anchor="middle" x="437" y="-246.7" font-family="Courier,monospace" font-size="11.00">ProjectEntity</text>
</g>
<!-- \\MainController -->
<g id="node29" class="node"><title>\\MainController</title>
<polygon fill="none" stroke="black" points="491.416,-430 382.584,-430 382.584,-394 491.416,-394 491.416,-430"/>
<text text-anchor="middle" x="437" y="-408.7" font-family="Courier,monospace" font-size="11.00">MainController</text>
</g>
<!-- \\MainController&#45;&gt;\\Controller -->
<g id="edge21" class="edge"><title>\\MainController&#45;&gt;\\Controller</title>
<path fill="none" stroke="black" d="M382.486,-395.616C373.522,-392.396 364.407,-388.821 356,-385 319.518,-368.42 280.269,-344.983 252.813,-327.582"/>
<polygon fill="none" stroke="black" points="254.643,-324.598 244.332,-322.161 250.873,-330.496 254.643,-324.598"/>
</g>
<!-- \\RegistrationView -->
<g id="node30" class="node"><title>\\RegistrationView</title>
<polygon fill="none" stroke="black" points="497.618,-1456 376.382,-1456 376.382,-1420 497.618,-1420 497.618,-1456"/>
<text text-anchor="middle" x="437" y="-1434.7" font-family="Courier,monospace" font-size="11.00">RegistrationView</text>
</g>
<!-- \\RegistrationView&#45;&gt;\\View -->
<g id="edge22" class="edge"><title>\\RegistrationView&#45;&gt;\\View</title>
<path fill="none" stroke="black" d="M376.285,-1422.46C369.109,-1419.28 362.154,-1415.5 356,-1411 296.176,-1367.28 251.185,-1290.26 230.155,-1249.34"/>
<polygon fill="none" stroke="black" points="233.19,-1247.59 225.564,-1240.23 226.939,-1250.74 233.19,-1247.59"/>
</g>
<!-- \\CommentController -->
<g id="node31" class="node"><title>\\CommentController</title>
<polygon fill="none" stroke="black" points="501.218,-376 372.782,-376 372.782,-340 501.218,-340 501.218,-376"/>
<text text-anchor="middle" x="437" y="-354.7" font-family="Courier,monospace" font-size="11.00">CommentController</text>
</g>
<!-- \\CommentController&#45;&gt;\\Controller -->
<g id="edge23" class="edge"><title>\\CommentController&#45;&gt;\\Controller</title>
<path fill="none" stroke="black" d="M372.656,-342.381C339.029,-334.089 298.294,-324.045 266.931,-316.312"/>
<polygon fill="none" stroke="black" points="267.645,-312.883 257.098,-313.887 265.97,-319.68 267.645,-312.883"/>
</g>
<!-- \\ArticleView -->
<g id="node33" class="node"><title>\\ArticleView</title>
<polygon fill="none" stroke="black" points="481.113,-1402 392.887,-1402 392.887,-1366 481.113,-1366 481.113,-1402"/>
<text text-anchor="middle" x="437" y="-1380.7" font-family="Courier,monospace" font-size="11.00">ArticleView</text>
</g>
<!-- \\ArticleView&#45;&gt;\\View -->
<g id="edge24" class="edge"><title>\\ArticleView&#45;&gt;\\View</title>
<path fill="none" stroke="black" d="M392.5,-1373.2C380.197,-1369.13 367.135,-1363.8 356,-1357 307.711,-1327.52 262.876,-1278.5 237.799,-1248.35"/>
<polygon fill="none" stroke="black" points="240.31,-1245.89 231.264,-1240.37 234.896,-1250.33 240.31,-1245.89"/>
</g>
</g>
</svg>
